# xmcd
#
# Track frame offsets: 
#        150
#        21818
#        37384
#        51255
#        66198
#        81436
#        101397
#        113403
#        129869
#        142206
#
# Disc length: 2207 seconds
#
# Revision: 1
# Processed by: cddbd v1.5.2PL0 Copyright (c) Steve Scherf et al.
# Submitted via: ExactAudioCopy v0.99pb5
#
DISCID=8a089d0a
DTITLE=!T.O.O.H.! - Rad a Trest
DYEAR=2005
DGENRE=Progressive Death Metal/Grindcore
TTITLE0=Al-Amin (Aneb Jak Vycakat Jelito)
TTITLE1=Analyza Zahnedy
TTITLE2=Konec Kontinentalniho Kontejneru
TTITLE3=Hanicka-Pribeh Nebozacky
TTITLE4=Abu-Hassan
TTITLE5=Rad A Trest
TTITLE6=Ja Samaritan
TTITLE7=Padaji, Piskaji
TTITLE8=To Je Jizda Bozinku
TTITLE9=Kali
EXTD=ripped/spread by cleve
EXTT0=
EXTT1=
EXTT2=
EXTT3=
EXTT4=
EXTT5=
EXTT6=
EXTT7=
EXTT8=
EXTT9=
PLAYORDER=
